<mxfile host="65bd71144e">
    <diagram id="qZGXsCtWok9NLsqaod5S" name="Page-1">
        <mxGraphModel dx="1968" dy="2033" grid="1" gridSize="10" guides="1" tooltips="1" connect="1" arrows="1" fold="1" page="1" pageScale="1" pageWidth="850" pageHeight="1100" math="0" shadow="0">
            <root>
                <mxCell id="0"/>
                <mxCell id="1" parent="0"/>
                <mxCell id="65" value="" style="rounded=0;whiteSpace=wrap;html=1;align=left;labelBackgroundColor=none;fillColor=#f5f5f5;fontColor=#333333;strokeColor=#666666;" vertex="1" parent="1">
                    <mxGeometry x="10" y="-1090" width="870" height="1110" as="geometry"/>
                </mxCell>
                <mxCell id="6" value="0" style="edgeStyle=none;html=1;labelBackgroundColor=none;" parent="1" source="2" target="3" edge="1">
                    <mxGeometry relative="1" as="geometry"/>
                </mxCell>
                <mxCell id="2" value="User" style="sketch=0;aspect=fixed;pointerEvents=1;shadow=0;dashed=0;html=1;strokeColor=none;labelPosition=center;verticalLabelPosition=bottom;verticalAlign=top;align=center;fillColor=#000000;shape=mxgraph.azure.user;labelBackgroundColor=none;fontColor=#000000;" parent="1" vertex="1">
                    <mxGeometry x="765" y="-164.5" width="75.2" height="80" as="geometry"/>
                </mxCell>
                <mxCell id="10" value="" style="rounded=0;whiteSpace=wrap;html=1;align=left;labelBackgroundColor=none;fillColor=#f5f5f5;fontColor=#333333;strokeColor=#666666;" parent="1" vertex="1">
                    <mxGeometry x="205" y="-515.5" width="500" height="170" as="geometry"/>
                </mxCell>
                <mxCell id="11" value="Order Depth Function" style="sketch=0;points=[[0,0,0],[0.25,0,0],[0.5,0,0],[0.75,0,0],[1,0,0],[0,1,0],[0.25,1,0],[0.5,1,0],[0.75,1,0],[1,1,0],[0,0.25,0],[0,0.5,0],[0,0.75,0],[1,0.25,0],[1,0.5,0],[1,0.75,0]];outlineConnect=0;fontColor=#030303;gradientColor=#F78E04;gradientDirection=north;fillColor=#D05C17;strokeColor=#ffffff;dashed=0;verticalLabelPosition=bottom;verticalAlign=top;align=center;html=1;fontSize=12;fontStyle=0;aspect=fixed;shape=mxgraph.aws4.resourceIcon;resIcon=mxgraph.aws4.lambda;labelBackgroundColor=none;" parent="1" vertex="1">
                    <mxGeometry x="271" y="-479.5" width="78" height="78" as="geometry"/>
                </mxCell>
                <mxCell id="12" value="Hauling Function" style="sketch=0;points=[[0,0,0],[0.25,0,0],[0.5,0,0],[0.75,0,0],[1,0,0],[0,1,0],[0.25,1,0],[0.5,1,0],[0.75,1,0],[1,1,0],[0,0.25,0],[0,0.5,0],[0,0.75,0],[1,0.25,0],[1,0.5,0],[1,0.75,0]];outlineConnect=0;fontColor=#030303;gradientColor=#F78E04;gradientDirection=north;fillColor=#D05C17;strokeColor=#ffffff;dashed=0;verticalLabelPosition=bottom;verticalAlign=top;align=center;html=1;fontSize=12;fontStyle=0;aspect=fixed;shape=mxgraph.aws4.resourceIcon;resIcon=mxgraph.aws4.lambda;labelBackgroundColor=none;" parent="1" vertex="1">
                    <mxGeometry x="421" y="-479.5" width="78" height="78" as="geometry"/>
                </mxCell>
                <mxCell id="13" value="Station Trading Function" style="sketch=0;points=[[0,0,0],[0.25,0,0],[0.5,0,0],[0.75,0,0],[1,0,0],[0,1,0],[0.25,1,0],[0.5,1,0],[0.75,1,0],[1,1,0],[0,0.25,0],[0,0.5,0],[0,0.75,0],[1,0.25,0],[1,0.5,0],[1,0.75,0]];outlineConnect=0;fontColor=#030303;gradientColor=#F78E04;gradientDirection=north;fillColor=#D05C17;strokeColor=#ffffff;dashed=0;verticalLabelPosition=bottom;verticalAlign=top;align=center;html=1;fontSize=12;fontStyle=0;aspect=fixed;shape=mxgraph.aws4.resourceIcon;resIcon=mxgraph.aws4.lambda;labelBackgroundColor=none;" parent="1" vertex="1">
                    <mxGeometry x="575" y="-479.5" width="78" height="78" as="geometry"/>
                </mxCell>
                <mxCell id="15" value="AWS Lambda Serverless Functions&lt;br&gt;Connected via Lambda Invocation URLs" style="text;html=1;resizable=0;autosize=1;align=center;verticalAlign=middle;points=[];fillColor=none;strokeColor=none;rounded=0;labelBackgroundColor=none;fontColor=#000000;" parent="1" vertex="1">
                    <mxGeometry x="205" y="-331.5" width="230" height="30" as="geometry"/>
                </mxCell>
                <mxCell id="17" value="" style="group;labelBackgroundColor=none;" parent="1" vertex="1" connectable="0">
                    <mxGeometry x="290" y="-214.5" width="330" height="215" as="geometry"/>
                </mxCell>
                <mxCell id="3" value="" style="strokeWidth=1;shadow=0;dashed=0;align=center;html=1;shape=mxgraph.mockup.containers.browserWindow;rSize=0;strokeColor=#666666;strokeColor2=#008cff;strokeColor3=#c4c4c4;mainText=,;recursiveResize=0;fillColor=#f5f5f5;fontColor=#333333;labelBackgroundColor=none;" parent="17" vertex="1">
                    <mxGeometry width="330" height="180" as="geometry"/>
                </mxCell>
                <mxCell id="4" value="Page 1" style="strokeWidth=1;shadow=0;dashed=0;align=center;html=1;shape=mxgraph.mockup.containers.anchor;fontSize=17;fontColor=#666666;align=left;labelBackgroundColor=none;" parent="3" vertex="1">
                    <mxGeometry x="60" y="12" width="110" height="26" as="geometry"/>
                </mxCell>
                <mxCell id="5" value="https://evetrade.space" style="strokeWidth=1;shadow=0;dashed=0;align=center;html=1;shape=mxgraph.mockup.containers.anchor;rSize=0;fontSize=17;fontColor=#666666;align=left;labelBackgroundColor=none;" parent="3" vertex="1">
                    <mxGeometry x="130" y="60" width="250" height="26" as="geometry"/>
                </mxCell>
                <mxCell id="7" value="EVETrade UI Application hosted on Netlify CMS" style="text;html=1;resizable=0;autosize=1;align=center;verticalAlign=middle;points=[];fillColor=none;strokeColor=none;rounded=0;labelBackgroundColor=none;fontColor=#000000;" parent="17" vertex="1">
                    <mxGeometry x="30" y="195" width="270" height="20" as="geometry"/>
                </mxCell>
                <mxCell id="22" style="edgeStyle=none;html=1;entryX=0.5;entryY=1;entryDx=0;entryDy=0;labelBackgroundColor=none;fontColor=#FFFFFF;" parent="1" source="3" target="10" edge="1">
                    <mxGeometry relative="1" as="geometry"/>
                </mxCell>
                <mxCell id="33" value="Static Data Export Files (JSON)&lt;br style=&quot;font-size: 11px;&quot;&gt;Used for common universe data" style="edgeStyle=none;html=1;entryX=0.75;entryY=0;entryDx=0;entryDy=0;fontColor=#000000;labelBackgroundColor=none;strokeColor=#000000;strokeWidth=2;fontStyle=0;spacing=3;fontSize=11;" parent="1" source="27" target="10" edge="1">
                    <mxGeometry x="-0.7369" y="69" relative="1" as="geometry">
                        <mxPoint as="offset"/>
                    </mxGeometry>
                </mxCell>
                <mxCell id="27" value="S3 Bucket" style="sketch=0;points=[[0,0,0],[0.25,0,0],[0.5,0,0],[0.75,0,0],[1,0,0],[0,1,0],[0.25,1,0],[0.5,1,0],[0.75,1,0],[1,1,0],[0,0.25,0],[0,0.5,0],[0,0.75,0],[1,0.25,0],[1,0.5,0],[1,0.75,0]];outlineConnect=0;fontColor=#000000;gradientColor=#60A337;gradientDirection=north;fillColor=#277116;strokeColor=#ffffff;dashed=0;verticalLabelPosition=middle;verticalAlign=middle;align=right;html=1;fontSize=12;fontStyle=0;aspect=fixed;shape=mxgraph.aws4.resourceIcon;resIcon=mxgraph.aws4.s3;labelBackgroundColor=none;labelPosition=left;" parent="1" vertex="1">
                    <mxGeometry x="687" y="-712" width="78" height="78" as="geometry"/>
                </mxCell>
                <mxCell id="29" value="Elasticsearch 7.10" style="sketch=0;points=[[0,0,0],[0.25,0,0],[0.5,0,0],[0.75,0,0],[1,0,0],[0,1,0],[0.25,1,0],[0.5,1,0],[0.75,1,0],[1,1,0],[0,0.25,0],[0,0.5,0],[0,0.75,0],[1,0.25,0],[1,0.5,0],[1,0.75,0]];outlineConnect=0;fontColor=#000000;gradientColor=#945DF2;gradientDirection=north;fillColor=#5A30B5;strokeColor=#ffffff;dashed=0;verticalLabelPosition=middle;verticalAlign=middle;align=right;html=1;fontSize=12;fontStyle=0;aspect=fixed;shape=mxgraph.aws4.resourceIcon;resIcon=mxgraph.aws4.elasticsearch_service;labelBackgroundColor=none;labelPosition=left;" parent="1" vertex="1">
                    <mxGeometry x="142" y="-712" width="78" height="78" as="geometry"/>
                </mxCell>
                <mxCell id="35" style="edgeStyle=none;html=1;entryX=0.5;entryY=0;entryDx=0;entryDy=0;entryPerimeter=0;fontColor=#FFFFFF;labelBackgroundColor=none;strokeColor=#000000;strokeWidth=2;fontStyle=0;spacing=3;fontSize=11;" parent="1" source="34" target="27" edge="1">
                    <mxGeometry relative="1" as="geometry"/>
                </mxCell>
                <mxCell id="34" value="SDE Sync Service" style="sketch=0;points=[[0,0,0],[0.25,0,0],[0.5,0,0],[0.75,0,0],[1,0,0],[0,1,0],[0.25,1,0],[0.5,1,0],[0.75,1,0],[1,1,0],[0,0.25,0],[0,0.5,0],[0,0.75,0],[1,0.25,0],[1,0.5,0],[1,0.75,0]];outlineConnect=0;fontColor=#000000;gradientColor=#F78E04;gradientDirection=north;fillColor=#D05C17;strokeColor=#ffffff;dashed=0;verticalLabelPosition=middle;verticalAlign=middle;align=left;html=1;fontSize=12;fontStyle=0;aspect=fixed;shape=mxgraph.aws4.resourceIcon;resIcon=mxgraph.aws4.lambda;labelBackgroundColor=none;labelPosition=right;" parent="1" vertex="1">
                    <mxGeometry x="687" y="-865.5" width="78" height="78" as="geometry"/>
                </mxCell>
                <mxCell id="37" style="edgeStyle=none;html=1;entryX=0;entryY=0.5;entryDx=0;entryDy=0;entryPerimeter=0;fontColor=#FFFFFF;labelBackgroundColor=none;strokeColor=#000000;strokeWidth=2;fontStyle=0;spacing=3;fontSize=11;" parent="1" source="36" target="34" edge="1">
                    <mxGeometry relative="1" as="geometry"/>
                </mxCell>
                <mxCell id="39" style="edgeStyle=none;html=1;entryX=1;entryY=0.5;entryDx=0;entryDy=0;entryPerimeter=0;fontColor=#FFFFFF;labelBackgroundColor=none;" parent="1" source="36" target="29" edge="1">
                    <mxGeometry relative="1" as="geometry">
                        <Array as="points">
                            <mxPoint x="305" y="-826.5"/>
                            <mxPoint x="305" y="-672.5"/>
                        </Array>
                    </mxGeometry>
                </mxCell>
                <mxCell id="36" value="GitHub Action:&lt;br&gt;Resource Cache" style="sketch=0;html=1;dashed=0;whitespace=wrap;fillColor=#2875E2;strokeColor=#ffffff;points=[[0.005,0.63,0],[0.1,0.2,0],[0.9,0.2,0],[0.5,0,0],[0.995,0.63,0],[0.72,0.99,0],[0.5,1,0],[0.28,0.99,0]];shape=mxgraph.kubernetes.icon;prIcon=job;labelBackgroundColor=none;fontColor=#000000;labelPosition=right;verticalLabelPosition=top;align=left;verticalAlign=bottom;" parent="1" vertex="1">
                    <mxGeometry x="410.5" y="-870.5" width="89" height="88" as="geometry"/>
                </mxCell>
                <mxCell id="42" style="edgeStyle=none;html=1;entryX=0.5;entryY=0;entryDx=0;entryDy=0;entryPerimeter=0;fontColor=#FFFFFF;labelBackgroundColor=none;" parent="1" source="41" target="29" edge="1">
                    <mxGeometry relative="1" as="geometry"/>
                </mxCell>
                <mxCell id="41" value="Sync Service (Heroku)&lt;br&gt;Ingests Market &lt;br&gt;Data Regularly" style="outlineConnect=0;dashed=0;verticalLabelPosition=middle;verticalAlign=middle;align=right;html=1;shape=mxgraph.aws3.ec2;fillColor=#F58534;gradientColor=none;labelBackgroundColor=none;fontColor=#000000;labelPosition=left;" parent="1" vertex="1">
                    <mxGeometry x="142.75" y="-873" width="76.5" height="93" as="geometry"/>
                </mxCell>
                <mxCell id="44" value="&lt;font&gt;EVE Developer Resources&lt;/font&gt;" style="rounded=0;whiteSpace=wrap;html=1;align=center;labelPosition=center;verticalLabelPosition=top;verticalAlign=bottom;labelBackgroundColor=none;fontColor=#000000;strokeColor=#000000;fillColor=#FFFFFF;" parent="1" vertex="1">
                    <mxGeometry x="205" y="-1064" width="500" height="124" as="geometry"/>
                </mxCell>
                <mxCell id="45" value="EVE Swagger API" style="rounded=0;whiteSpace=wrap;html=1;labelBackgroundColor=none;strokeColor=#000000;fillColor=#FFFFFF;fontColor=#000000;" parent="1" vertex="1">
                    <mxGeometry x="250" y="-1032" width="120" height="60" as="geometry"/>
                </mxCell>
                <mxCell id="48" value="Static Data Export&lt;br&gt;(SDE)" style="rounded=0;whiteSpace=wrap;html=1;labelBackgroundColor=none;fontColor=#000000;strokeColor=#000000;fillColor=#FFFFFF;" parent="1" vertex="1">
                    <mxGeometry x="533" y="-1032" width="120" height="60" as="geometry"/>
                </mxCell>
                <mxCell id="51" style="edgeStyle=none;html=1;entryX=0.5;entryY=0;entryDx=0;entryDy=0;entryPerimeter=0;fontColor=#FFFFFF;labelBackgroundColor=none;fillColor=#f5f5f5;strokeColor=#000000;strokeWidth=2;fontStyle=0;spacing=3;fontSize=11;exitX=0;exitY=0.5;exitDx=0;exitDy=0;" parent="1" edge="1" target="36" source="48">
                    <mxGeometry relative="1" as="geometry">
                        <Array as="points">
                            <mxPoint x="455" y="-1002"/>
                        </Array>
                        <mxPoint x="533" y="-964" as="sourcePoint"/>
                        <mxPoint x="455" y="-739" as="targetPoint"/>
                    </mxGeometry>
                </mxCell>
                <mxCell id="53" style="edgeStyle=none;html=1;entryX=1;entryY=0.5;entryDx=0;entryDy=0;entryPerimeter=0;fontColor=#FFFFFF;labelBackgroundColor=none;strokeColor=#FFFFFF;strokeWidth=2;" parent="1" edge="1">
                    <mxGeometry relative="1" as="geometry">
                        <Array as="points">
                            <mxPoint x="305" y="-826.5"/>
                            <mxPoint x="305" y="-672.5"/>
                        </Array>
                        <mxPoint x="410.5" y="-826.5" as="sourcePoint"/>
                        <mxPoint x="220" y="-673" as="targetPoint"/>
                    </mxGeometry>
                </mxCell>
                <mxCell id="55" style="edgeStyle=none;html=1;entryX=0.5;entryY=0;entryDx=0;entryDy=0;entryPerimeter=0;fontColor=#FFFFFF;labelBackgroundColor=none;strokeColor=#000000;strokeWidth=2;fontStyle=0;spacing=3;fontSize=11;" parent="1" edge="1">
                    <mxGeometry relative="1" as="geometry">
                        <mxPoint x="181" y="-780" as="sourcePoint"/>
                        <mxPoint x="181" y="-712" as="targetPoint"/>
                    </mxGeometry>
                </mxCell>
                <mxCell id="56" value="Pulls Market Orders&lt;br&gt;Every 15min&lt;br&gt;&lt;br&gt;Aggregates Historic&lt;br&gt;Data daily into Redis" style="edgeStyle=none;html=1;fontColor=#000000;labelBackgroundColor=none;strokeColor=#000000;strokeWidth=2;fontStyle=0;spacing=3;fontSize=11;" parent="1" edge="1" target="25">
                    <mxGeometry x="0.0083" y="65" relative="1" as="geometry">
                        <mxPoint x="455" y="-782.5" as="sourcePoint"/>
                        <mxPoint x="455" y="-711.5" as="targetPoint"/>
                        <mxPoint as="offset"/>
                    </mxGeometry>
                </mxCell>
                <mxCell id="57" value="0" style="edgeStyle=none;html=1;labelBackgroundColor=none;strokeColor=#000000;strokeWidth=2;fontStyle=0;spacing=3;fontSize=11;" parent="1" edge="1">
                    <mxGeometry relative="1" as="geometry">
                        <mxPoint x="765" y="-124.5" as="sourcePoint"/>
                        <mxPoint x="620" y="-124.5" as="targetPoint"/>
                    </mxGeometry>
                </mxCell>
                <mxCell id="58" style="edgeStyle=none;html=1;entryX=0.5;entryY=1;entryDx=0;entryDy=0;labelBackgroundColor=none;fontColor=#FFFFFF;strokeColor=#000000;strokeWidth=2;fontStyle=0;spacing=3;fontSize=11;" parent="1" edge="1">
                    <mxGeometry relative="1" as="geometry">
                        <mxPoint x="455" y="-214.5" as="sourcePoint"/>
                        <mxPoint x="455" y="-345.5" as="targetPoint"/>
                    </mxGeometry>
                </mxCell>
                <mxCell id="60" value="Marked and Jump Data &lt;br style=&quot;font-size: 11px;&quot;&gt;pulled for analysis" style="edgeStyle=none;html=1;entryX=0.25;entryY=0;entryDx=0;entryDy=0;fontColor=#000000;labelBackgroundColor=none;strokeColor=#000000;strokeWidth=2;fontStyle=0;spacing=3;fontSize=11;" parent="1" edge="1">
                    <mxGeometry x="-0.3365" y="-48" relative="1" as="geometry">
                        <mxPoint x="217.89523809523826" y="-634" as="sourcePoint"/>
                        <mxPoint x="330" y="-515.5" as="targetPoint"/>
                        <mxPoint as="offset"/>
                    </mxGeometry>
                </mxCell>
                <mxCell id="61" value="" style="edgeStyle=none;html=1;entryX=0.5;entryY=0;entryDx=0;entryDy=0;fontColor=#000000;labelBackgroundColor=none;strokeColor=#000000;strokeWidth=2;fontStyle=0;spacing=3;fontSize=11;startArrow=none;" parent="1" edge="1" source="25">
                    <mxGeometry x="0.0515" y="95" relative="1" as="geometry">
                        <mxPoint x="455" y="-638.5" as="sourcePoint"/>
                        <mxPoint x="455" y="-515.5" as="targetPoint"/>
                        <mxPoint as="offset"/>
                    </mxGeometry>
                </mxCell>
                <mxCell id="62" style="edgeStyle=none;html=1;entryX=1;entryY=0.5;entryDx=0;entryDy=0;entryPerimeter=0;fontColor=#FFFFFF;labelBackgroundColor=none;strokeColor=#000000;strokeWidth=2;fontStyle=0;spacing=3;fontSize=11;" parent="1" edge="1">
                    <mxGeometry relative="1" as="geometry">
                        <Array as="points">
                            <mxPoint x="305" y="-826.5"/>
                            <mxPoint x="305" y="-672.5"/>
                        </Array>
                        <mxPoint x="410.5" y="-826.5" as="sourcePoint"/>
                        <mxPoint x="220" y="-673" as="targetPoint"/>
                    </mxGeometry>
                </mxCell>
                <mxCell id="63" value="Ingest Route &lt;br&gt;Jump Data&lt;br&gt;(As Needed)" style="edgeLabel;html=1;align=center;verticalAlign=middle;resizable=0;points=[];fontColor=#000000;labelBackgroundColor=none;" parent="62" vertex="1" connectable="0">
                    <mxGeometry x="-0.0218" y="-1" relative="1" as="geometry">
                        <mxPoint x="26" y="-87" as="offset"/>
                    </mxGeometry>
                </mxCell>
                <mxCell id="64" style="edgeStyle=none;html=1;entryX=0.5;entryY=0;entryDx=0;entryDy=0;entryPerimeter=0;fontColor=#FFFFFF;labelBackgroundColor=none;strokeColor=#000000;strokeWidth=2;fontStyle=0;spacing=3;fontSize=11;exitX=0;exitY=0.5;exitDx=0;exitDy=0;" parent="1" edge="1" target="41" source="45">
                    <mxGeometry relative="1" as="geometry">
                        <Array as="points">
                            <mxPoint x="181" y="-1002"/>
                        </Array>
                        <mxPoint x="250" y="-964" as="sourcePoint"/>
                        <mxPoint x="181" y="-741.5" as="targetPoint"/>
                    </mxGeometry>
                </mxCell>
                <mxCell id="67" value="" style="edgeStyle=none;html=1;entryX=0.5;entryY=0;entryDx=0;entryDy=0;fontColor=#000000;labelBackgroundColor=none;strokeColor=#000000;strokeWidth=2;fontStyle=0;spacing=3;fontSize=11;endArrow=none;" edge="1" parent="1" target="25">
                    <mxGeometry x="-0.0732" y="65" relative="1" as="geometry">
                        <mxPoint x="455" y="-638.5" as="sourcePoint"/>
                        <mxPoint x="455" y="-515.5" as="targetPoint"/>
                        <mxPoint as="offset"/>
                    </mxGeometry>
                </mxCell>
                <mxCell id="25" value="Redis Cache" style="sketch=0;outlineConnect=0;fontColor=#000000;gradientColor=none;fillColor=#2E27AD;strokeColor=none;dashed=0;verticalLabelPosition=middle;verticalAlign=middle;align=right;html=1;fontSize=12;fontStyle=0;aspect=fixed;pointerEvents=1;shape=mxgraph.aws4.elasticache_for_redis;labelBackgroundColor=none;labelPosition=left;" parent="1" vertex="1">
                    <mxGeometry x="416" y="-661.5" width="78" height="69" as="geometry"/>
                </mxCell>
            </root>
        </mxGraphModel>
    </diagram>
</mxfile>